<svg id="visual" viewBox="0 0 960 540" width="960" height="540" xmlns="http://www.w3.org/2000/svg" xmlns:xlink="http://www.w3.org/1999/xlink" version="1.1"><rect x="0" y="0" width="960" height="540" fill="#001220"></rect><defs><linearGradient id="grad1_0" x1="43.8%" y1="0%" x2="100%" y2="100%"><stop offset="14.444444444444446%" stop-color="#001220" stop-opacity="1"></stop><stop offset="85.55555555555554%" stop-color="#001220" stop-opacity="1"></stop></linearGradient></defs><defs><linearGradient id="grad2_0" x1="0%" y1="0%" x2="56.3%" y2="100%"><stop offset="14.444444444444446%" stop-color="#001220" stop-opacity="1"></stop><stop offset="85.55555555555554%" stop-color="#001220" stop-opacity="1"></stop></linearGradient></defs><g transform="translate(960, 0)"><path d="M0 378C-21.7 332.5 -43.4 287 -74.3 277.2C-105.1 267.4 -145.2 293.4 -160 277.1C-174.8 260.9 -164.4 202.4 -176.8 176.8C-189.1 151.2 -224.2 158.4 -263.3 152C-302.3 145.6 -345.3 125.4 -365.1 97.8C-384.9 70.2 -381.5 35.1 -378 0L0 0Z" fill="#FBAE3C"></path></g><g transform="translate(0, 540)"><path d="M0 -378C35.4 -366 70.7 -353.9 85.2 -317.8C99.6 -281.7 93.1 -221.4 125.5 -217.4C157.9 -213.3 229.2 -265.4 267.3 -267.3C305.3 -269.2 310.1 -220.9 319.6 -184.5C329 -148.1 343 -123.5 353.5 -94.7C364 -66 371 -33 378 0L0 0Z" fill="#FBAE3C"></path></g></svg>